<svg width="46" height="9" viewBox="0 0 46 9" fill="none" xmlns="http://www.w3.org/2000/svg">
<path d="M2.41 7.13C1.95 7.13 1.53667 7.05 1.17 6.89C0.81 6.72333 0.526667 6.49666 0.32 6.21C0.113333 5.91666 0.00666652 5.58 -1.3411e-07 5.2H0.97C1.00333 5.52666 1.13667 5.80333 1.37 6.03C1.61 6.25 1.95667 6.36 2.41 6.36C2.84333 6.36 3.18333 6.25333 3.43 6.04C3.68333 5.82 3.81 5.54 3.81 5.2C3.81 4.93333 3.73667 4.71666 3.59 4.55C3.44333 4.38333 3.26 4.25666 3.04 4.17C2.82 4.08333 2.52333 3.99 2.15 3.89C1.69 3.77 1.32 3.65 1.04 3.53C0.766667 3.41 0.53 3.22333 0.33 2.97C0.136667 2.71 0.0399999 2.36333 0.0399999 1.93C0.0399999 1.55 0.136667 1.21333 0.33 0.919997C0.523333 0.626664 0.793333 0.399997 1.14 0.239997C1.49333 0.0799972 1.89667 -2.74181e-06 2.35 -2.74181e-06C3.00333 -2.74181e-06 3.53667 0.163331 3.95 0.489998C4.37 0.816664 4.60667 1.25 4.66 1.79H3.66C3.62667 1.52333 3.48667 1.29 3.24 1.09C2.99333 0.883331 2.66667 0.779997 2.26 0.779997C1.88 0.779997 1.57 0.879997 1.33 1.08C1.09 1.27333 0.97 1.54666 0.97 1.9C0.97 2.15333 1.04 2.36 1.18 2.52C1.32667 2.68 1.50333 2.80333 1.71 2.89C1.92333 2.97 2.22 3.06333 2.6 3.17C3.06 3.29666 3.43 3.42333 3.71 3.55C3.99 3.67 4.23 3.86 4.43 4.12C4.63 4.37333 4.73 4.72 4.73 5.16C4.73 5.5 4.64 5.82 4.46 6.12C4.28 6.42 4.01333 6.66333 3.66 6.85C3.30667 7.03666 2.89 7.13 2.41 7.13ZM11.4391 0.0899973V7.06H10.5291V3.9H6.97914V7.06H6.06914V0.0899973H6.97914V3.15H10.5291V0.0899973H11.4391ZM16.153 7.13C15.5063 7.13 14.9163 6.98 14.383 6.68C13.8496 6.37333 13.4263 5.95 13.113 5.41C12.8063 4.86333 12.653 4.25 12.653 3.57C12.653 2.89 12.8063 2.28 13.113 1.74C13.4263 1.19333 13.8496 0.769997 14.383 0.469997C14.9163 0.16333 15.5063 0.00999713 16.153 0.00999713C16.8063 0.00999713 17.3996 0.16333 17.933 0.469997C18.4663 0.769997 18.8863 1.19 19.193 1.73C19.4996 2.27 19.653 2.88333 19.653 3.57C19.653 4.25666 19.4996 4.87 19.193 5.41C18.8863 5.95 18.4663 6.37333 17.933 6.68C17.3996 6.98 16.8063 7.13 16.153 7.13ZM16.153 6.34C16.6396 6.34 17.0763 6.22666 17.463 6C17.8563 5.77333 18.163 5.45 18.383 5.03C18.6096 4.61 18.723 4.12333 18.723 3.57C18.723 3.01 18.6096 2.52333 18.383 2.11C18.163 1.69 17.8596 1.36666 17.473 1.14C17.0863 0.913331 16.6463 0.799997 16.153 0.799997C15.6596 0.799997 15.2196 0.913331 14.833 1.14C14.4463 1.36666 14.1396 1.69 13.913 2.11C13.693 2.52333 13.583 3.01 13.583 3.57C13.583 4.12333 13.693 4.61 13.913 5.03C14.1396 5.45 14.4463 5.77333 14.833 6C15.2263 6.22666 15.6663 6.34 16.153 6.34ZM25.5143 2.13C25.5143 2.71 25.3143 3.19333 24.9143 3.58C24.521 3.96 23.9176 4.15 23.1043 4.15H21.7643V7.06H20.8543V0.0899973H23.1043C23.891 0.0899973 24.4876 0.279997 24.8943 0.659997C25.3076 1.04 25.5143 1.53 25.5143 2.13ZM23.1043 3.4C23.611 3.4 23.9843 3.29 24.2243 3.07C24.4643 2.85 24.5843 2.53666 24.5843 2.13C24.5843 1.27 24.091 0.839997 23.1043 0.839997H21.7643V3.4H23.1043Z" fill="url(#paint0_linear_9_8)"/>
<path d="M27.5553 6.32H29.9953V7.06H26.6453V0.0899973H27.5553V6.32ZM31.8717 0.0899973V7.06H30.9617V0.0899973H31.8717ZM38.9027 7.06H37.9927L34.3327 1.51V7.06H33.4227V0.0799974H34.3327L37.9927 5.62V0.0799974H38.9027V7.06ZM44.2339 7.06L41.3639 3.88V7.06H40.4539V0.0899973H41.3639V3.32L44.2439 0.0899973H45.3939L42.2339 3.58L45.4239 7.06H44.2339Z" fill="url(#paint1_linear_9_8)"/>
<path d="M25.8753 8.06H45.6739V8.56H25.8753V8.06Z" fill="url(#paint2_linear_9_8)"/>
<defs>
<linearGradient id="paint0_linear_9_8" x1="-0.57" y1="2.06" x2="47.43" y2="2.06" gradientUnits="userSpaceOnUse">
<stop stop-color="#7B2FF2"/>
<stop offset="0.629808" stop-color="#471B8C"/>
</linearGradient>
<linearGradient id="paint1_linear_9_8" x1="-0.57" y1="2.06" x2="47.43" y2="2.06" gradientUnits="userSpaceOnUse">
<stop stop-color="#F357A8"/>
<stop offset="0.461538" stop-color="#B5417D"/>
<stop offset="0.764423" stop-color="#8D3261"/>
</linearGradient>
<linearGradient id="paint2_linear_9_8" x1="-0.57" y1="2.06" x2="47.43" y2="2.06" gradientUnits="userSpaceOnUse">
<stop stop-color="#F357A8"/>
<stop offset="0.461538" stop-color="#B5417D"/>
<stop offset="0.764423" stop-color="#8D3261"/>
</linearGradient>
</defs>
</svg>
